<svg width="270" height="53" viewBox="0 0 270 53" fill="none" xmlns="http://www.w3.org/2000/svg">
<path d="M15.5231 44.6744H13.6146C13.2191 44.6744 12.8984 44.9951 12.8984 45.3906V47.8353C12.8984 48.2308 13.2191 48.5515 13.6146 48.5515H15.5231C15.9187 48.5515 16.2393 48.2308 16.2393 47.8353V45.3906C16.2393 44.9951 15.9187 44.6744 15.5231 44.6744Z" fill="#17192C"/>
<path d="M15.5219 45.3866H13.6094V47.8313H15.5219V45.3866Z" fill="#E0E1E0"/>
<path d="M23.0075 44.7744H21.099C20.7035 44.7744 20.3828 45.0951 20.3828 45.4906V47.9353C20.3828 48.3308 20.7035 48.6515 21.099 48.6515H23.0075C23.4031 48.6515 23.7237 48.3308 23.7237 47.9353V45.4906C23.7237 45.0951 23.4031 44.7744 23.0075 44.7744Z" fill="#17192C"/>
<path d="M23.0219 45.4907H21.1094V47.9354H23.0219V45.4907Z" fill="#E0E1E0"/>
<path fill-rule="evenodd" clip-rule="evenodd" d="M43.9131 6.1521H129.88L127.8 49.3277H43.9131C41.7605 49.3277 40 47.1671 40 44.5304V10.9494C40 8.30868 41.7605 6.1521 43.9131 6.1521Z" fill="#17192C"/>
<mask id="mask0_693_3572" style="mask-type:luminance" maskUnits="userSpaceOnUse" x="40" y="6" width="90" height="44">
<path d="M43.9287 6.1521H129.896L127.815 49.3277H43.9287C41.7761 49.3277 40.0156 47.1671 40.0156 44.5304V10.9494C40.0156 8.30868 41.7761 6.1521 43.9287 6.1521Z" fill="white"/>
</mask>
<g mask="url(#mask0_693_3572)">
<path d="M127.815 6.1521H40.0156V6.23612H127.815V6.1521Z" fill="#17192C"/>
<path d="M127.815 6.1521H40.0156V6.40417H127.815V6.1521Z" fill="#17192C"/>
<path d="M127.815 6.32019H40.0156V6.57226H127.815V6.32019Z" fill="#17192C"/>
<path d="M127.815 6.48816H40.0156V6.74023H127.815V6.48816Z" fill="#17192C"/>
<path d="M127.815 6.65625H40.0156V6.90832H127.815V6.65625Z" fill="#17192C"/>
<path d="M127.815 6.82434H40.0156V7.07641H127.815V6.82434Z" fill="#17192C"/>
<path d="M127.815 6.99634H40.0156V7.24841H127.815V6.99634Z" fill="#17192C"/>
<path d="M127.815 7.16443H40.0156V7.4165H127.815V7.16443Z" fill="#17192C"/>
<path d="M127.815 7.3324H40.0156V7.58446H127.815V7.3324Z" fill="#17192C"/>
<path d="M127.815 7.50049H40.0156V7.75256H127.815V7.50049Z" fill="#17192C"/>
<path d="M127.815 7.66846H40.0156V7.92053H127.815V7.66846Z" fill="#17192C"/>
<path d="M127.815 7.83655H40.0156V8.08862H127.815V7.83655Z" fill="#17192C"/>
<path d="M127.815 8.00854H40.0156V8.26061H127.815V8.00854Z" fill="#17192C"/>
<path d="M127.815 8.17664H40.0156V8.4287H127.815V8.17664Z" fill="#17192C"/>
<path d="M127.815 8.34473H40.0156V8.59679H127.815V8.34473Z" fill="#17192C"/>
<path d="M127.815 8.5127H40.0156V8.76476H127.815V8.5127Z" fill="#17192C"/>
<path d="M127.815 8.68079H40.0156V8.93285H127.815V8.68079Z" fill="#17192C"/>
<path d="M127.815 8.84888H40.0156V9.10094H127.815V8.84888Z" fill="#17192C"/>
<path d="M127.815 9.01685H40.0156V9.26891H127.815V9.01685Z" fill="#17192C"/>
<path d="M127.815 9.18896H40.0156V9.44103H127.815V9.18896Z" fill="#17192C"/>
<path d="M127.815 9.35693H40.0156V9.609H127.815V9.35693Z" fill="#17192C"/>
<path d="M127.815 9.52502H40.0156V9.77709H127.815V9.52502Z" fill="#17192C"/>
<path d="M127.815 9.69299H40.0156V9.94506H127.815V9.69299Z" fill="#17192C"/>
<path d="M127.815 9.86108H40.0156V10.1132H127.815V9.86108Z" fill="#17192C"/>
<path d="M127.815 10.0292H40.0156V10.2812H127.815V10.0292Z" fill="#17192C"/>
<path d="M127.815 10.2012H40.0156V10.4532H127.815V10.2012Z" fill="#17192C"/>
<path d="M127.815 10.3693H40.0156V10.6213H127.815V10.3693Z" fill="#17192C"/>
<path d="M127.815 10.5372H40.0156V10.7893H127.815V10.5372Z" fill="#17192C"/>
<path d="M127.815 10.7053H40.0156V10.9574H127.815V10.7053Z" fill="#17192C"/>
<path d="M127.815 10.8734H40.0156V11.1255H127.815V10.8734Z" fill="#17192C"/>
<path d="M127.815 11.0414H40.0156V11.2934H127.815V11.0414Z" fill="#17192C"/>
<path d="M127.815 11.2135H40.0156V11.4656H127.815V11.2135Z" fill="#17192C"/>
<path d="M127.815 11.3815H40.0156V11.6335H127.815V11.3815Z" fill="#17192C"/>
<path d="M127.815 11.5496H40.0156V11.8016H127.815V11.5496Z" fill="#17192C"/>
<path d="M127.815 11.7177H40.0156V11.9697H127.815V11.7177Z" fill="#17192C"/>
<path d="M127.815 11.8856H40.0156V12.1377H127.815V11.8856Z" fill="#17192C"/>
<path d="M127.815 12.0537H40.0156V12.3058H127.815V12.0537Z" fill="#17192C"/>
<path d="M127.815 12.2217H40.0156V12.4737H127.815V12.2217Z" fill="#17192C"/>
<path d="M127.815 12.3938H40.0156V12.6459H127.815V12.3938Z" fill="#17192C"/>
<path d="M127.815 12.5618H40.0156V12.8138H127.815V12.5618Z" fill="#17192C"/>
<path d="M127.815 12.7299H40.0156V12.9819H127.815V12.7299Z" fill="#17192C"/>
<path d="M127.815 12.8979H40.0156V13.15H127.815V12.8979Z" fill="#17192C"/>
<path d="M127.815 13.0659H40.0156V13.318H127.815V13.0659Z" fill="#17192C"/>
<path d="M127.815 13.234H40.0156V13.4861H127.815V13.234Z" fill="#17192C"/>
<path d="M127.815 13.406H40.0156V13.6581H127.815V13.406Z" fill="#17192C"/>
<path d="M127.815 13.5741H40.0156V13.8262H127.815V13.5741Z" fill="#17192C"/>
<path d="M127.815 13.7422H40.0156V13.9943H127.815V13.7422Z" fill="#17192C"/>
<path d="M127.815 13.9102H40.0156V14.1622H127.815V13.9102Z" fill="#17192C"/>
<path d="M127.815 14.0782H40.0156V14.3303H127.815V14.0782Z" fill="#17192C"/>
<path d="M127.815 14.2462H40.0156V14.4983H127.815V14.2462Z" fill="#17192C"/>
<path d="M127.815 14.4143H40.0156V14.6664H127.815V14.4143Z" fill="#17192C"/>
<path d="M127.815 14.5863H40.0156V14.8384H127.815V14.5863Z" fill="#17192C"/>
<path d="M127.815 14.7544H40.0156V15.0065H127.815V14.7544Z" fill="#17192C"/>
<path d="M127.815 14.9225H40.0156V15.1746H127.815V14.9225Z" fill="#17192C"/>
<path d="M127.815 15.0905H40.0156V15.3425H127.815V15.0905Z" fill="#17192C"/>
<path d="M127.815 15.2585H40.0156V15.5106H127.815V15.2585Z" fill="#17192C"/>
<path d="M127.815 15.4266H40.0156V15.6787H127.815V15.4266Z" fill="#17192C"/>
<path d="M127.815 15.5946H40.0156V15.8467H127.815V15.5946Z" fill="#17192C"/>
<path d="M127.815 15.7667H40.0156V16.0188H127.815V15.7667Z" fill="#17192C"/>
<path d="M127.815 15.9347H40.0156V16.1868H127.815V15.9347Z" fill="#17192C"/>
<path d="M127.815 16.1028H40.0156V16.3549H127.815V16.1028Z" fill="#17192C"/>
<path d="M127.815 16.2709H40.0156V16.5229H127.815V16.2709Z" fill="#17192C"/>
<path d="M127.815 16.4388H40.0156V16.6909H127.815V16.4388Z" fill="#17192C"/>
<path d="M127.815 16.6069H40.0156V16.859H127.815V16.6069Z" fill="#17192C"/>
<path d="M127.815 16.7789H40.0156V17.031H127.815V16.7789Z" fill="#17192C"/>
<path d="M127.815 16.947H40.0156V17.1991H127.815V16.947Z" fill="#17192C"/>
<path d="M127.815 17.115H40.0156V17.3671H127.815V17.115Z" fill="#17192C"/>
<path d="M127.815 17.2831H40.0156V17.5351H127.815V17.2831Z" fill="#17192C"/>
<path d="M127.815 17.4512H40.0156V17.7032H127.815V17.4512Z" fill="#17192C"/>
<path d="M127.815 17.6191H40.0156V17.8712H127.815V17.6191Z" fill="#17192C"/>
<path d="M127.815 17.7913H40.0156V18.0433H127.815V17.7913Z" fill="#17192C"/>
<path d="M127.815 17.9592H40.0156V18.2113H127.815V17.9592Z" fill="#17192C"/>
<path d="M127.815 18.1273H40.0156V18.3794H127.815V18.1273Z" fill="#17192C"/>
<path d="M127.815 18.2954H40.0156V18.5475H127.815V18.2954Z" fill="#17192C"/>
<path d="M127.815 18.4634H40.0156V18.7154H127.815V18.4634Z" fill="#17192C"/>
<path d="M127.815 18.6315H40.0156V18.8835H127.815V18.6315Z" fill="#17192C"/>
<path d="M127.815 18.7994H40.0156V19.0515H127.815V18.7994Z" fill="#17192C"/>
<path d="M127.815 18.9716H40.0156V19.2236H127.815V18.9716Z" fill="#17192C"/>
<path d="M127.815 19.1396H40.0156V19.3917H127.815V19.1396Z" fill="#17192C"/>
<path d="M127.815 19.3076H40.0156V19.5597H127.815V19.3076Z" fill="#17192C"/>
<path d="M127.815 19.4757H40.0156V19.7278H127.815V19.4757Z" fill="#17192C"/>
<path d="M127.815 19.6437H40.0156V19.8957H127.815V19.6437Z" fill="#17192C"/>
<path d="M127.815 19.8118H40.0156V20.0638H127.815V19.8118Z" fill="#17192C"/>
<path d="M127.815 19.9838H40.0156V20.2358H127.815V19.9838Z" fill="#17192C"/>
<path d="M127.815 20.1519H40.0156V20.4039H127.815V20.1519Z" fill="#17192C"/>
<path d="M127.815 20.3199H40.0156V20.572H127.815V20.3199Z" fill="#17192C"/>
<path d="M127.815 20.4879H40.0156V20.74H127.815V20.4879Z" fill="#17192C"/>
<path d="M127.815 20.656H40.0156V20.9081H127.815V20.656Z" fill="#17192C"/>
<path d="M127.815 20.8241H40.0156V21.0762H127.815V20.8241Z" fill="#17192C"/>
<path d="M127.815 20.9921H40.0156V21.2441H127.815V20.9921Z" fill="#17192C"/>
<path d="M127.815 21.1642H40.0156V21.4163H127.815V21.1642Z" fill="#17192C"/>
<path d="M127.815 21.3322H40.0156V21.5842H127.815V21.3322Z" fill="#17192C"/>
<path d="M127.815 21.5002H40.0156V21.7523H127.815V21.5002Z" fill="#17192C"/>
<path d="M127.815 21.6682H40.0156V21.9203H127.815V21.6682Z" fill="#17192C"/>
<path d="M127.815 21.8363H40.0156V22.0884H127.815V21.8363Z" fill="#17192C"/>
<path d="M127.815 22.0044H40.0156V22.2565H127.815V22.0044Z" fill="#17192C"/>
<path d="M127.815 22.1764H40.0156V22.4285H127.815V22.1764Z" fill="#17192C"/>
<path d="M127.815 22.3445H40.0156V22.5965H127.815V22.3445Z" fill="#17192C"/>
<path d="M127.815 22.5125H40.0156V22.7645H127.815V22.5125Z" fill="#17192C"/>
<path d="M127.815 22.6805H40.0156V22.9326H127.815V22.6805Z" fill="#17192C"/>
<path d="M127.815 22.8486H40.0156V23.1007H127.815V22.8486Z" fill="#17192C"/>
<path d="M127.815 23.0166H40.0156V23.2687H127.815V23.0166Z" fill="#17192C"/>
<path d="M127.815 23.1847H40.0156V23.4368H127.815V23.1847Z" fill="#17192C"/>
<path d="M127.815 23.3567H40.0156V23.6088H127.815V23.3567Z" fill="#17192C"/>
<path d="M127.815 23.5248H40.0156V23.7768H127.815V23.5248Z" fill="#17192C"/>
<path d="M127.815 23.6929H40.0156V23.9449H127.815V23.6929Z" fill="#17192C"/>
<path d="M127.815 23.8608H40.0156V24.1129H127.815V23.8608Z" fill="#17192C"/>
<path d="M127.815 24.0289H40.0156V24.281H127.815V24.0289Z" fill="#17192C"/>
<path d="M127.815 24.1969H40.0156V24.449H127.815V24.1969Z" fill="#17192C"/>
<path d="M127.815 24.369H40.0156V24.6211H127.815V24.369Z" fill="#17192C"/>
<path d="M127.815 24.537H40.0156V24.7891H127.815V24.537Z" fill="#17192C"/>
<path d="M127.815 24.7051H40.0156V24.9571H127.815V24.7051Z" fill="#17192C"/>
<path d="M127.815 24.8732H40.0156V25.1252H127.815V24.8732Z" fill="#17192C"/>
<path d="M127.815 25.0411H40.0156V25.2932H127.815V25.0411Z" fill="#17192C"/>
<path d="M127.815 25.2092H40.0156V25.4613H127.815V25.2092Z" fill="#17192C"/>
<path d="M127.815 25.3773H40.0156V25.6294H127.815V25.3773Z" fill="#17192C"/>
<path d="M127.815 25.5493H40.0156V25.8014H127.815V25.5493Z" fill="#17192C"/>
<path d="M127.815 25.7174H40.0156V25.9695H127.815V25.7174Z" fill="#17192C"/>
<path d="M127.815 25.8854H40.0156V26.1374H127.815V25.8854Z" fill="#17192C"/>
<path d="M127.815 26.0535H40.0156V26.3055H127.815V26.0535Z" fill="#17192C"/>
<path d="M127.815 26.2216H40.0156V26.4736H127.815V26.2216Z" fill="#17192C"/>
<path d="M127.815 26.3895H40.0156V26.6416H127.815V26.3895Z" fill="#17192C"/>
<path d="M127.815 26.5615H40.0156V26.8136H127.815V26.5615Z" fill="#17192C"/>
<path d="M127.815 26.7296H40.0156V26.9817H127.815V26.7296Z" fill="#17192C"/>
<path d="M127.815 26.8977H40.0156V27.1498H127.815V26.8977Z" fill="#17192C"/>
<path d="M127.815 27.0657H40.0156V27.3177H127.815V27.0657Z" fill="#17192C"/>
<path d="M127.815 27.2338H40.0156V27.4858H127.815V27.2338Z" fill="#17192C"/>
<path d="M127.815 27.4019H40.0156V27.6539H127.815V27.4019Z" fill="#17192C"/>
<path d="M127.815 27.5698H40.0156V27.8219H127.815V27.5698Z" fill="#17192C"/>
<path d="M127.815 27.7419H40.0156V27.994H127.815V27.7419Z" fill="#17192C"/>
<path d="M127.815 27.9099H40.0156V28.162H127.815V27.9099Z" fill="#17192C"/>
<path d="M127.815 28.078H40.0156V28.3301H127.815V28.078Z" fill="#17192C"/>
<path d="M127.815 28.2461H40.0156V28.4982H127.815V28.2461Z" fill="#17192C"/>
<path d="M127.815 28.4141H40.0156V28.6661H127.815V28.4141Z" fill="#17192C"/>
<path d="M127.815 28.5822H40.0156V28.8342H127.815V28.5822Z" fill="#17192C"/>
<path d="M127.815 28.7542H40.0156V29.0062H127.815V28.7542Z" fill="#17192C"/>
<path d="M127.815 28.9222H40.0156V29.1743H127.815V28.9222Z" fill="#17192C"/>
<path d="M127.815 29.0902H40.0156V29.3423H127.815V29.0902Z" fill="#17192C"/>
<path d="M127.815 29.2583H40.0156V29.5104H127.815V29.2583Z" fill="#17192C"/>
<path d="M127.815 29.4264H40.0156V29.6785H127.815V29.4264Z" fill="#17192C"/>
<path d="M127.815 29.5944H40.0156V29.8464H127.815V29.5944Z" fill="#17192C"/>
<path d="M127.815 29.7625H40.0156V30.0145H127.815V29.7625Z" fill="#17192C"/>
<path d="M127.815 29.9344H40.0156V30.1865H127.815V29.9344Z" fill="#17192C"/>
<path d="M127.815 30.1025H40.0156V30.3546H127.815V30.1025Z" fill="#17192C"/>
<path d="M127.815 30.2706H40.0156V30.5227H127.815V30.2706Z" fill="#17192C"/>
<path d="M127.815 30.4386H40.0156V30.6907H127.815V30.4386Z" fill="#17192C"/>
<path d="M127.815 30.6067H40.0156V30.8588H127.815V30.6067Z" fill="#17192C"/>
<path d="M127.815 30.7747H40.0156V31.0267H127.815V30.7747Z" fill="#17192C"/>
<path d="M127.815 30.9468H40.0156V31.1988H127.815V30.9468Z" fill="#17192C"/>
<path d="M127.815 31.1149H40.0156V31.3669H127.815V31.1149Z" fill="#17192C"/>
<path d="M127.815 31.2828H40.0156V31.5349H127.815V31.2828Z" fill="#17192C"/>
<path d="M127.815 31.4509H40.0156V31.703H127.815V31.4509Z" fill="#17192C"/>
<path d="M127.815 31.6189H40.0156V31.871H127.815V31.6189Z" fill="#17192C"/>
<path d="M127.815 31.787H40.0156V32.0391H127.815V31.787Z" fill="#17192C"/>
<path d="M127.815 31.9551H40.0156V32.2071H127.815V31.9551Z" fill="#17192C"/>
<path d="M127.815 32.1271H40.0156V32.3791H127.815V32.1271Z" fill="#17192C"/>
<path d="M127.815 32.2952H40.0156V32.5472H127.815V32.2952Z" fill="#17192C"/>
<path d="M127.815 32.4631H40.0156V32.7152H127.815V32.4631Z" fill="#17192C"/>
<path d="M127.815 32.6312H40.0156V32.8833H127.815V32.6312Z" fill="#17192C"/>
<path d="M127.815 32.7993H40.0156V33.0514H127.815V32.7993Z" fill="#17192C"/>
<path d="M127.815 32.9673H40.0156V33.2194H127.815V32.9673Z" fill="#17192C"/>
<path d="M127.815 33.1394H40.0156V33.3915H127.815V33.1394Z" fill="#17192C"/>
<path d="M127.815 33.3074H40.0156V33.5594H127.815V33.3074Z" fill="#17192C"/>
<path d="M127.815 33.4755H40.0156V33.7275H127.815V33.4755Z" fill="#17192C"/>
<path d="M127.815 33.6434H40.0156V33.8955H127.815V33.6434Z" fill="#17192C"/>
<path d="M127.815 33.8115H40.0156V34.0636H127.815V33.8115Z" fill="#17192C"/>
<path d="M127.815 33.9796H40.0156V34.2317H127.815V33.9796Z" fill="#17192C"/>
<path d="M127.815 34.1476H40.0156V34.3997H127.815V34.1476Z" fill="#17192C"/>
<path d="M127.815 34.3197H40.0156V34.5718H127.815V34.3197Z" fill="#17192C"/>
<path d="M127.815 34.4877H40.0156V34.7397H127.815V34.4877Z" fill="#17192C"/>
<path d="M127.815 34.6558H40.0156V34.9078H127.815V34.6558Z" fill="#17192C"/>
<path d="M127.815 34.8239H40.0156V35.0759H127.815V34.8239Z" fill="#17192C"/>
<path d="M127.815 34.9918H40.0156V35.2439H127.815V34.9918Z" fill="#17192C"/>
<path d="M127.815 35.1599H40.0156V35.412H127.815V35.1599Z" fill="#17192C"/>
<path d="M127.815 35.3319H40.0156V35.584H127.815V35.3319Z" fill="#17192C"/>
<path d="M127.815 35.5H40.0156V35.7521H127.815V35.5Z" fill="#17192C"/>
<path d="M127.815 35.6681H40.0156V35.9202H127.815V35.6681Z" fill="#17192C"/>
<path d="M127.815 35.8361H40.0156V36.0881H127.815V35.8361Z" fill="#17192C"/>
<path d="M127.815 36.0042H40.0156V36.2562H127.815V36.0042Z" fill="#17192C"/>
<path d="M127.815 36.1721H40.0156V36.4242H127.815V36.1721Z" fill="#17192C"/>
<path d="M127.815 36.3402H40.0156V36.5923H127.815V36.3402Z" fill="#17192C"/>
<path d="M127.815 36.5122H40.0156V36.7643H127.815V36.5122Z" fill="#17192C"/>
<path d="M127.815 36.6803H40.0156V36.9324H127.815V36.6803Z" fill="#17192C"/>
<path d="M127.815 36.8484H40.0156V37.1005H127.815V36.8484Z" fill="#17192C"/>
<path d="M127.815 37.0164H40.0156V37.2684H127.815V37.0164Z" fill="#17192C"/>
<path d="M127.815 37.1844H40.0156V37.4365H127.815V37.1844Z" fill="#17192C"/>
<path d="M127.815 37.3525H40.0156V37.6046H127.815V37.3525Z" fill="#17192C"/>
<path d="M127.815 37.5245H40.0156V37.7766H127.815V37.5245Z" fill="#17192C"/>
<path d="M127.815 37.6926H40.0156V37.9447H127.815V37.6926Z" fill="#17192C"/>
<path d="M127.815 37.8606H40.0156V38.1127H127.815V37.8606Z" fill="#17192C"/>
<path d="M127.815 38.0287H40.0156V38.2808H127.815V38.0287Z" fill="#17192C"/>
<path d="M127.815 38.1967H40.0156V38.4487H127.815V38.1967Z" fill="#17192C"/>
<path d="M127.815 38.3647H40.0156V38.6168H127.815V38.3647Z" fill="#17192C"/>
<path d="M127.815 38.5369H40.0156V38.7889H127.815V38.5369Z" fill="#17192C"/>
<path d="M127.815 38.7048H40.0156V38.9569H127.815V38.7048Z" fill="#17192C"/>
<path d="M127.815 38.8729H40.0156V39.125H127.815V38.8729Z" fill="#17192C"/>
<path d="M127.815 39.0409H40.0156V39.293H127.815V39.0409Z" fill="#17192C"/>
<path d="M127.815 39.209H40.0156V39.4611H127.815V39.209Z" fill="#17192C"/>
<path d="M127.815 39.3771H40.0156V39.6291H127.815V39.3771Z" fill="#17192C"/>
<path d="M127.815 39.545H40.0156V39.7971H127.815V39.545Z" fill="#17192C"/>
<path d="M127.815 39.7172H40.0156V39.9692H127.815V39.7172Z" fill="#17192C"/>
<path d="M127.815 39.8851H40.0156V40.1372H127.815V39.8851Z" fill="#17192C"/>
<path d="M127.815 40.0532H40.0156V40.3053H127.815V40.0532Z" fill="#17192C"/>
<path d="M127.815 40.2212H40.0156V40.4733H127.815V40.2212Z" fill="#17192C"/>
<path d="M127.815 40.3893H40.0156V40.6413H127.815V40.3893Z" fill="#17192C"/>
<path d="M127.815 40.5574H40.0156V40.8094H127.815V40.5574Z" fill="#17192C"/>
<path d="M127.815 40.7294H40.0156V40.9814H127.815V40.7294Z" fill="#17192C"/>
<path d="M127.815 40.8975H40.0156V41.1495H127.815V40.8975Z" fill="#17192C"/>
<path d="M127.815 41.0654H40.0156V41.3175H127.815V41.0654Z" fill="#17192C"/>
<path d="M127.815 41.2335H40.0156V41.4856H127.815V41.2335Z" fill="#17192C"/>
<path d="M127.815 41.4016H40.0156V41.6537H127.815V41.4016Z" fill="#17192C"/>
<path d="M127.815 41.5696H40.0156V41.8216H127.815V41.5696Z" fill="#17192C"/>
<path d="M127.815 41.7377H40.0156V41.9897H127.815V41.7377Z" fill="#17192C"/>
<path d="M127.815 41.9097H40.0156V42.1617H127.815V41.9097Z" fill="#17192C"/>
<path d="M127.815 42.0778H40.0156V42.3298H127.815V42.0778Z" fill="#17192C"/>
<path d="M127.815 42.2458H40.0156V42.4979H127.815V42.2458Z" fill="#17192C"/>
<path d="M127.815 42.4138H40.0156V42.6659H127.815V42.4138Z" fill="#17192C"/>
<path d="M127.815 42.5819H40.0156V42.834H127.815V42.5819Z" fill="#17192C"/>
<path d="M127.815 42.7499H40.0156V43.0019H127.815V42.7499Z" fill="#17192C"/>
<path d="M127.815 42.922H40.0156V43.1741H127.815V42.922Z" fill="#17192C"/>
<path d="M127.815 43.0901H40.0156V43.3422H127.815V43.0901Z" fill="#17192C"/>
<path d="M127.815 43.2581H40.0156V43.5101H127.815V43.2581Z" fill="#17192C"/>
<path d="M127.815 43.4261H40.0156V43.6782H127.815V43.4261Z" fill="#17192C"/>
<path d="M127.815 43.5941H40.0156V43.8462H127.815V43.5941Z" fill="#17192C"/>
<path d="M127.815 43.7622H40.0156V44.0143H127.815V43.7622Z" fill="#17192C"/>
<path d="M127.815 43.9303H40.0156V44.1824H127.815V43.9303Z" fill="#17192C"/>
<path d="M127.815 44.1023H40.0156V44.3544H127.815V44.1023Z" fill="#17192C"/>
<path d="M127.815 44.2704H40.0156V44.5225H127.815V44.2704Z" fill="#17192C"/>
<path d="M127.815 44.4384H40.0156V44.6904H127.815V44.4384Z" fill="#17192C"/>
<path d="M127.815 44.6064H40.0156V44.8585H127.815V44.6064Z" fill="#17192C"/>
<path d="M127.815 44.7745H40.0156V45.0266H127.815V44.7745Z" fill="#17192C"/>
<path d="M127.815 44.9425H40.0156V45.1946H127.815V44.9425Z" fill="#17192C"/>
<path d="M127.815 45.1146H40.0156V45.3667H127.815V45.1146Z" fill="#17192C"/>
<path d="M127.815 45.2826H40.0156V45.5347H127.815V45.2826Z" fill="#17192C"/>
<path d="M127.815 45.4507H40.0156V45.7028H127.815V45.4507Z" fill="#17192C"/>
<path d="M127.815 45.6187H40.0156V45.8707H127.815V45.6187Z" fill="#17192C"/>
<path d="M127.815 45.7867H40.0156V46.0388H127.815V45.7867Z" fill="#17192C"/>
<path d="M127.815 45.9548H40.0156V46.2069H127.815V45.9548Z" fill="#17192C"/>
<path d="M127.815 46.1228H40.0156V46.3749H127.815V46.1228Z" fill="#17192C"/>
<path d="M127.815 46.2949H40.0156V46.547H127.815V46.2949Z" fill="#17192C"/>
<path d="M127.815 46.4629H40.0156V46.715H127.815V46.4629Z" fill="#17192C"/>
<path d="M127.815 46.631H40.0156V46.883H127.815V46.631Z" fill="#17192C"/>
<path d="M127.815 46.7991H40.0156V47.0511H127.815V46.7991Z" fill="#17192C"/>
<path d="M127.815 46.967H40.0156V47.2191H127.815V46.967Z" fill="#17192C"/>
<path d="M127.815 47.1351H40.0156V47.3872H127.815V47.1351Z" fill="#17192C"/>
<path d="M127.815 47.3071H40.0156V47.5592H127.815V47.3071Z" fill="#17192C"/>
<path d="M127.815 47.4752H40.0156V47.7273H127.815V47.4752Z" fill="#17192C"/>
<path d="M127.815 47.6432H40.0156V47.8953H127.815V47.6432Z" fill="#17192C"/>
<path d="M127.815 47.8113H40.0156V48.0633H127.815V47.8113Z" fill="#17192C"/>
<path d="M127.815 47.9794H40.0156V48.2314H127.815V47.9794Z" fill="#17192C"/>
<path d="M127.815 48.1473H40.0156V48.3994H127.815V48.1473Z" fill="#17192C"/>
<path d="M127.815 48.3154H40.0156V48.5675H127.815V48.3154Z" fill="#17192C"/>
<path d="M127.815 48.4874H40.0156V48.7395H127.815V48.4874Z" fill="#17192C"/>
<path d="M127.815 48.6555H40.0156V48.9076H127.815V48.6555Z" fill="#17192C"/>
<path d="M127.815 48.8236H40.0156V49.0757H127.815V48.8236Z" fill="#17192C"/>
<path d="M127.815 48.9916H40.0156V49.2436H127.815V48.9916Z" fill="#17192C"/>
<path d="M127.815 49.1597H40.0156V49.3277H127.815V49.1597Z" fill="#17192C"/>
</g>
<path fill-rule="evenodd" clip-rule="evenodd" d="M129.886 6.1521H263.918C267.135 6.1521 269.763 8.31268 269.763 10.9494V44.5304C269.763 47.1671 267.131 49.3277 263.918 49.3277H122.016L129.886 6.1521Z" fill="#18192C"/>
<path opacity="0.25" fill-rule="evenodd" clip-rule="evenodd" d="M125.507 32.3551L45.2576 32.5071C43.3691 32.5071 40.1562 32.6672 40.1562 33.7035L40.1963 44.2943C40.1963 45.3306 41.3926 49.4677 43.2771 49.4677L122.406 49.3277L125.507 32.3551Z" fill="url(#paint0_linear_693_3572)"/>
<path opacity="0.25" fill-rule="evenodd" clip-rule="evenodd" d="M125.308 32.3551L261.309 32.5071C264.509 32.5071 269.955 32.6672 269.955 33.7035L269.883 44.2943C269.883 45.3306 267.858 49.4677 264.657 49.4677L122.203 49.3277L125.304 32.3551H125.308Z" fill="url(#paint1_linear_693_3572)"/>
<path opacity="0.18" fill-rule="evenodd" clip-rule="evenodd" d="M19.1487 49.0237C29.3594 49.0597 37.6456 49.8199 37.6576 50.7201C37.6696 51.6204 29.3994 52.3206 19.1887 52.2845C8.97793 52.2485 0.691704 51.4883 0.679701 50.5881C0.667697 49.6878 8.93792 48.9877 19.1487 49.0237Z" fill="url(#paint2_linear_693_3572)"/>
<path opacity="0.18" fill-rule="evenodd" clip-rule="evenodd" d="M18.2218 49.7278C24.0313 49.7478 28.7486 50.1799 28.7566 50.692C28.7646 51.2042 24.0593 51.6043 18.2458 51.5843C12.4362 51.5643 7.71895 51.1321 7.71095 50.62C7.70295 50.1079 12.4082 49.7078 18.2218 49.7278Z" fill="url(#paint3_linear_693_3572)"/>
<path opacity="0.21" fill-rule="evenodd" clip-rule="evenodd" d="M164.738 44.2343C173.033 44.2623 179.766 44.8824 179.774 45.6106C179.782 46.3428 173.069 46.911 164.77 46.883C156.476 46.855 149.742 46.2348 149.734 45.5066C149.726 44.7744 156.44 44.2063 164.738 44.2343Z" fill="url(#paint4_linear_693_3572)"/>
<path opacity="0.21" fill-rule="evenodd" clip-rule="evenodd" d="M163.999 44.8024C168.721 44.8185 172.55 45.1705 172.558 45.5867C172.562 46.0028 168.741 46.3269 164.019 46.3109C159.298 46.2948 155.469 45.9428 155.461 45.5266C155.457 45.1105 159.278 44.7864 163.999 44.8024Z" fill="url(#paint5_linear_693_3572)"/>
<path d="M33.5799 10.0772C33.5799 7.90857 31.7154 6.1521 29.4188 6.1521H6.02049C3.72388 6.1521 1.85938 7.91257 1.85938 10.0772V37.0204H33.5799V10.0772Z" fill="#17192C"/>
<path d="M31.8126 11.7816C31.8126 9.74906 30.1561 8.10461 28.1156 8.10461H7.32199C5.27744 8.10461 3.625 9.75306 3.625 11.7816V37.0244H31.8126V11.7816Z" fill="url(#paint6_linear_693_3572)"/>
<path d="M1.78125 37.9767V42.1738C1.78125 44.2664 3.58173 45.9668 5.79833 45.9668H29.6247C31.8413 45.9668 33.6418 44.2664 33.6418 42.1738V37.9767H1.78125Z" fill="#17192C"/>
<path d="M3.625 37.9767V41.2496C3.625 42.882 5.21743 44.2064 7.18196 44.2064H28.2596C30.2241 44.2064 31.8166 42.882 31.8166 41.2496V37.9767H3.625Z" fill="url(#paint7_linear_693_3572)"/>
<path d="M56.2473 42.2418C52.2543 42.2418 49.5455 41.0415 48.1892 38.6768C46.8608 36.3602 46.8248 32.8033 48.0731 27.7979C49.2935 22.9086 51.298 19.2236 54.0388 16.847C56.8035 14.4503 60.1124 13.234 63.8774 13.234C67.6424 13.234 70.5752 14.1222 72.5877 15.8747L72.9558 16.1948L72.6237 17.5272C72.4957 18.0473 72.2076 18.8235 71.7435 19.9318C71.2754 21.0481 70.7632 21.9804 70.2191 22.7046L69.979 23.0246H65.4058L65.2378 22.4445C65.0297 21.7243 65.0017 20.776 65.1497 19.5517C64.3775 19.3316 63.5253 19.2196 62.6091 19.2196C61.0606 19.2196 59.7443 19.7998 58.584 20.9961C57.3837 22.2324 56.3714 24.473 55.5792 27.6579C54.3708 32.5112 54.911 34.5437 55.5792 35.396C56.0273 35.9721 56.7195 36.2522 57.6957 36.2522C58.84 36.2522 59.9203 36.0921 60.9166 35.7761L61.7368 32.4872C60.8166 32.0711 60.2084 31.5589 59.8843 30.9388L59.7203 30.6227L61.1927 26.7016H71.7355L71.2154 30.9508L71.0033 31.1508C70.5472 31.5789 69.895 31.975 69.0108 32.3551L67.2383 39.4611L66.9622 39.6331C65.4258 40.5814 63.8094 41.2615 62.1529 41.6536C60.5165 42.0417 58.532 42.2378 56.2553 42.2378H56.2473V42.2418Z" fill="#E0E1E0"/>
<path d="M62.6118 18.4234C60.8513 18.4234 59.3189 19.0956 58.0105 20.444C56.7062 21.7883 55.6339 24.1329 54.8017 27.4698C53.2092 33.8636 54.1695 37.0604 57.6905 37.0604C59.0868 37.0604 60.3872 36.8404 61.5835 36.4002L62.6758 32.0151C61.5835 31.627 60.8873 31.1468 60.5872 30.5787L61.7395 27.5139H70.822L70.4459 30.5787C70.0058 30.9948 69.2976 31.3949 68.3213 31.783L66.5288 38.9649C65.0604 39.8692 63.536 40.5133 61.9556 40.8854C60.3752 41.2615 58.4707 41.4496 56.2461 41.4496C52.5451 41.4496 50.0884 40.3933 48.8841 38.2847C47.6758 36.1762 47.6638 32.7473 48.8481 27.998C50.0324 23.2487 51.9369 19.7358 54.5616 17.4592C57.1863 15.1825 60.2912 14.0422 63.8761 14.0422C67.4611 14.0422 70.1898 14.8585 72.0583 16.4869C72.0183 16.6429 71.9463 16.939 71.8343 17.3791C71.7262 17.8193 71.4461 18.5715 71.002 19.6317C70.5539 20.692 70.0818 21.5603 69.5776 22.2324H66.0047C65.7966 21.5082 65.8046 20.432 66.0327 19.0116C65.0164 18.6235 63.8721 18.4274 62.6078 18.4274L62.6118 18.4234Z" fill="white"/>
<path d="M85.6103 41.9337L86.1744 37.5365L86.3665 37.3445C86.7826 36.9284 87.3988 36.5563 88.247 36.2122L88.107 34.2877H81.5572L80.4329 36.3042C80.9971 36.6443 81.4132 37.0324 81.7052 37.4805L81.9213 37.8166L80.3969 41.9377H70.0781L70.6463 37.5365L70.8463 37.3405C71.5145 36.6963 72.4948 36.1762 73.8391 35.7641L86.9227 13.358H93.4284L95.593 36.0081C96.5052 36.4242 97.1254 36.9204 97.4775 37.5045L97.6775 37.8326L96.1611 41.9377H85.6103V41.9337ZM87.7669 29.1143L87.5268 25.2292C87.4828 24.6811 87.4588 24.1449 87.4548 23.6248C87.1667 24.225 86.8386 24.8491 86.4825 25.4933L84.438 29.1183H87.7669V29.1143Z" fill="#E0E1E0"/>
<path d="M92.7178 14.1503L94.8584 36.5523C95.8467 36.9404 96.4989 37.3925 96.8109 37.9127L95.6186 41.1335H86.5322L86.9483 37.9127C87.3604 37.5005 88.0806 37.1124 89.1009 36.7483L88.8648 33.4875H81.0987L79.3422 36.6323C80.1585 36.9964 80.7226 37.4205 81.0427 37.9127L79.8504 41.1335H71L71.4161 37.9127C72.0323 37.3165 73.0205 36.8244 74.3849 36.4363L87.3964 14.1503H92.7178ZM88.1406 19.5837C87.7485 21.1642 86.9643 23.0006 85.796 25.0972L83.0832 29.9105H88.6367L88.3407 25.1732C88.1966 23.3607 88.2686 21.7163 88.5607 20.2439L88.6848 19.5837H88.1406Z" fill="white"/>
<path d="M108.726 42.2418C107.114 42.2418 105.481 42.0298 103.881 41.6137C102.233 41.1855 100.896 40.5654 99.9079 39.7772L99.5078 39.4571L99.8559 38.0647C99.9759 37.5806 100.26 36.8044 100.728 35.6961C101.196 34.5798 101.708 33.6475 102.249 32.9273L102.489 32.6072H107.194L107.354 33.2034C107.562 33.9916 107.582 34.9519 107.414 36.1282C108.014 36.3202 108.722 36.4163 109.535 36.4163C110.595 36.4163 111.499 36.1762 112.295 35.6841C113.035 35.2239 113.5 34.5838 113.716 33.7235C113.824 33.2954 113.88 32.9473 113.88 32.6873C113.88 32.6393 113.864 32.4672 113.604 32.1551C113.396 31.9031 113.003 31.675 112.467 31.4949L108.774 30.3346C104.601 29.0463 102.977 26.0295 104.077 21.6123C104.709 19.0716 106.154 17.0151 108.37 15.4946C110.555 13.9982 113.139 13.238 116.048 13.238C118.957 13.238 121.618 13.8982 124.054 15.1946L124.607 15.4866L124.23 16.987C124.11 17.4672 123.826 18.2434 123.358 19.3557C122.89 20.472 122.378 21.4042 121.838 22.1284L121.598 22.4485H116.997L116.78 21.9804C116.48 21.3282 116.412 20.408 116.584 19.1876C116.032 19.0836 115.444 19.0316 114.828 19.0316C114.028 19.0316 113.36 19.2196 112.791 19.6118C112.251 19.9798 111.907 20.488 111.739 21.1642C111.631 21.6043 111.547 22.2084 111.787 22.5725C111.883 22.7206 112.251 23.1087 113.628 23.5208L116.84 24.5331C118.729 25.1252 120.149 26.0855 121.066 27.3778C122.014 28.7222 122.186 30.6467 121.574 33.0994C120.87 35.9241 119.273 38.1887 116.832 39.8212C114.428 41.4296 111.699 42.2458 108.73 42.2458L108.726 42.2418Z" fill="#E0E1E0"/>
<path d="M117.495 18.5755C116.67 18.3434 115.782 18.2274 114.826 18.2274C113.87 18.2274 113.037 18.4675 112.337 18.9436C111.637 19.4237 111.177 20.0959 110.961 20.9641C110.745 21.8324 110.793 22.5126 111.113 23.0007C111.429 23.4928 112.189 23.9209 113.394 24.281L116.598 25.2893C118.327 25.8334 119.595 26.6817 120.411 27.834C121.224 28.9863 121.352 30.6747 120.8 32.8993C120.143 35.5401 118.671 37.6246 116.386 39.149C114.102 40.6734 111.553 41.4376 108.732 41.4376C107.18 41.4376 105.631 41.2376 104.087 40.8375C102.543 40.4374 101.318 39.8732 100.414 39.149C100.454 38.993 100.526 38.6969 100.638 38.2568C100.746 37.8167 101.026 37.0685 101.47 36.0042C101.914 34.9439 102.391 34.0757 102.895 33.4035H106.584C106.796 34.2077 106.776 35.28 106.52 36.6243C107.328 37.0124 108.336 37.2085 109.541 37.2085C110.745 37.2085 111.805 36.9244 112.725 36.3563C113.642 35.7881 114.234 34.9719 114.498 33.9116C114.622 33.4195 114.682 33.0114 114.686 32.6873C114.686 32.3632 114.538 32.0151 114.23 31.639C113.922 31.2629 113.422 30.9588 112.729 30.7268L109.02 29.5624C105.247 28.3981 103.859 25.8094 104.859 21.7964C105.447 19.4397 106.768 17.5592 108.828 16.1468C110.889 14.7385 113.298 14.0303 116.054 14.0303C118.811 14.0303 121.356 14.6504 123.684 15.8948C123.644 16.0508 123.572 16.3469 123.46 16.787C123.352 17.2271 123.072 17.9793 122.628 19.0396C122.184 20.0999 121.708 20.9681 121.204 21.6403H117.515C117.231 21.0202 117.227 19.9959 117.503 18.5715H117.495V18.5755Z" fill="white"/>
<path d="M123.922 41.5736L124.49 37.1764L124.686 36.9843C125.166 36.5122 125.934 36.0801 127.031 35.668L131.188 18.9875C130.388 18.5794 129.867 18.1113 129.599 17.5631L129.451 17.255L130.956 13.1899H140.326C143.483 13.1899 145.688 13.386 147.068 13.7861C148.516 14.2062 149.501 14.7224 150.077 15.3585C151.297 16.6989 151.585 18.7074 150.933 21.3281C150.509 23.0206 149.333 24.637 147.428 26.1374C149.101 27.6338 149.553 29.9785 148.765 33.1313C148.072 35.916 146.612 38.0166 144.431 39.381C142.311 40.7053 139.454 41.4455 135.929 41.5776H123.922V41.5736ZM135.901 35.74C137.53 35.74 138.818 35.5079 139.734 35.0478C140.558 34.6357 141.094 33.8915 141.371 32.7752C141.551 32.047 141.675 31.0827 141.223 30.6066C140.994 30.3666 140.342 29.9624 138.514 29.9624H135.685L134.245 35.74H135.901ZM139.302 24.1329C140.45 24.1329 141.363 23.8568 142.091 23.2927C142.819 22.7285 143.267 22.0643 143.467 21.2641C143.591 20.768 143.683 20.1038 143.411 19.7437C143.163 19.4156 142.855 19.2316 142.435 19.1595C141.859 19.0635 140.974 19.0155 139.81 19.0155H138.418L137.141 24.1329H139.302Z" fill="#E0E1E0"/>
<path d="M140.336 13.9862C143.389 13.9862 145.561 14.1743 146.854 14.5504C148.146 14.9265 149.022 15.3706 149.49 15.8907C150.527 17.031 150.751 18.7755 150.163 21.1321C149.722 22.8926 148.362 24.561 146.077 26.1415C148.182 27.3578 148.818 29.6224 147.994 32.9353C147.35 35.524 146.021 37.4445 144.013 38.7008C142.004 39.9572 139.3 40.6494 135.907 40.7774H124.844L125.26 37.5565C125.704 37.1164 126.524 36.6883 127.717 36.2762L132.142 18.5354C131.177 18.1473 130.573 17.7072 130.337 17.2151L131.53 13.9942H140.344L140.336 13.9862ZM138.531 29.1663H135.075L133.234 36.5443H135.911C137.671 36.5443 139.068 36.2882 140.104 35.7681C141.14 35.2519 141.824 34.3197 142.16 32.9713C142.496 31.6269 142.38 30.6547 141.82 30.0585C141.256 29.4624 140.16 29.1663 138.531 29.1663ZM139.824 18.2193H137.807L136.131 24.9372H139.316C140.636 24.9372 141.728 24.6011 142.597 23.9289C143.465 23.2567 144.017 22.4325 144.261 21.4642C144.505 20.496 144.437 19.7638 144.069 19.2716C143.701 18.7795 143.205 18.4834 142.585 18.3794C141.964 18.2754 141.044 18.2233 139.828 18.2233L139.824 18.2193Z" fill="white"/>
<path d="M175.984 41.5736L176.553 37.1764L176.749 36.9843C177.229 36.5122 177.997 36.0801 179.093 35.668L183.25 18.9875C182.45 18.5794 181.93 18.1113 181.662 17.5631L181.514 17.255L183.018 13.1899H193.569L193.001 17.6031L192.785 17.7992C192.233 18.3033 191.469 18.7434 190.452 19.1355L186.287 35.836C187.039 36.2361 187.551 36.6602 187.844 37.1244L188.056 37.4605L186.535 41.5776H175.984V41.5736Z" fill="#E0E1E0"/>
<path d="M192.674 13.9862L192.258 17.2071C191.722 17.6992 190.902 18.1393 189.794 18.5274L185.369 36.2682C186.301 36.6803 186.905 37.1084 187.185 37.5485L185.993 40.7694H176.906L177.322 37.5485C177.77 37.1084 178.587 36.6803 179.779 36.2682L184.204 18.5274C183.24 18.1393 182.636 17.6992 182.4 17.2071L183.592 13.9862H192.678H192.674Z" fill="white"/>
<path d="M191.359 41.5736L191.928 37.1764L192.124 36.9843C192.604 36.5122 193.372 36.0801 194.468 35.668L198.625 18.9875C197.825 18.5794 197.305 18.1113 197.037 17.5631L196.889 17.255L198.393 13.1899H208.944L208.376 17.6031L208.16 17.7992C207.608 18.3033 206.844 18.7434 205.827 19.1355L201.686 35.744H206.307C206.976 34.5037 207.684 33.6154 208.468 33.0313L208.728 32.8392L212.729 33.3394L210.677 41.5776H191.359V41.5736Z" fill="#E0E1E0"/>
<path d="M210.062 40.7733H192.281L192.697 37.5524C193.141 37.1123 193.962 36.6842 195.15 36.2721L199.575 18.5313C198.611 18.1432 198.007 17.7031 197.771 17.211L198.963 13.9901H208.05L207.633 17.211C207.097 17.7031 206.277 18.1432 205.169 18.5313L200.68 36.5442H206.813C207.485 35.1998 208.202 34.2396 208.966 33.6714L211.75 34.0195L210.066 40.7733H210.062Z" fill="white"/>
<path d="M214.117 41.5736L214.685 37.1764L214.881 36.9843C215.362 36.5122 216.13 36.0801 217.226 35.668L221.383 18.9875C220.583 18.5794 220.063 18.1113 219.795 17.5631L219.647 17.255L221.151 13.1899H240.436L238.372 21.4762L234.451 21.9403L234.175 21.6322C233.67 21.0761 233.378 20.2158 233.282 19.0235H228.617L227.353 24.1009H231.298C231.766 23.4287 232.198 22.9486 232.622 22.6325L232.878 22.4404L236.479 22.8525L234.403 31.1828L230.958 31.6069L230.686 31.3468C230.37 31.0467 230.145 30.5906 229.997 29.9344H225.9L224.452 35.748H229.309C229.977 34.5077 230.686 33.6194 231.47 33.0353L231.73 32.8432L235.731 33.3434L233.678 41.5816H214.129L214.117 41.5736Z" fill="#E0E1E0"/>
<path d="M233.052 40.7733H215.039L215.455 37.5524C215.903 37.1123 216.72 36.6842 217.912 36.2721L222.337 18.5313C221.373 18.1432 220.769 17.7031 220.533 17.211L221.725 13.9901H239.43L237.745 20.7439L234.784 21.092C234.316 20.5759 234.076 19.6156 234.064 18.2192H228.007L226.342 24.897H231.74C232.244 24.1208 232.704 23.5767 233.116 23.2686L235.493 23.5407L233.768 30.4505L231.243 30.7626C230.971 30.5026 230.783 29.9624 230.679 29.1302H225.282L223.433 36.5442H229.799C230.471 35.1998 231.187 34.2396 231.952 33.6714L234.736 34.0195L233.052 40.7733Z" fill="white"/>
<path d="M253.685 41.5736L251.452 31.4348C251.324 30.7507 251.152 30.6226 251.152 30.6226H249.255L248.051 35.4599C249.635 35.908 250.564 36.4602 250.944 37.1764L251.112 37.4925L249.603 41.5736H237.656L238.224 37.1764L238.42 36.9843C238.901 36.5122 239.669 36.0801 240.765 35.668L244.922 18.9875C244.122 18.5794 243.602 18.1113 243.334 17.5631L243.186 17.255L244.69 13.1899H255.145C258.978 13.246 261.627 13.8701 263.263 15.0985C265.02 16.4188 265.496 18.7474 264.68 22.0283C264.199 23.9448 263.187 25.5733 261.671 26.8696C260.598 27.7819 259.402 28.5421 258.094 29.1382C258.646 29.6104 259.006 30.1425 259.178 30.7387L260.562 35.756C261.651 36.2121 262.359 36.7523 262.723 37.3964L262.907 37.7205L261.447 41.5776H253.685V41.5736ZM251.9 24.7931C253.521 24.7931 254.785 24.557 255.665 24.0889C256.461 23.6648 256.989 22.9005 257.278 21.7482C257.662 20.2078 257.145 19.8157 256.973 19.6877C256.565 19.3796 255.685 19.0155 253.821 19.0155H252.156L250.716 24.7931H251.904H251.9Z" fill="#E0E1E0"/>
<path d="M263.905 21.8283C263.465 23.5888 262.549 25.0652 261.153 26.2535C259.756 27.4458 258.152 28.3501 256.339 28.9702C257.496 29.5144 258.188 30.1746 258.408 30.9508L259.896 36.3482C261.009 36.7643 261.717 37.2405 262.021 37.7846L260.888 40.7734H254.327L252.234 31.2628C252.058 30.3066 251.698 29.8265 251.154 29.8265H248.629L247.081 36.0361C248.865 36.4522 249.918 36.9564 250.238 37.5485L249.045 40.7694H238.562L238.979 37.5485C239.423 37.1084 240.243 36.6803 241.431 36.2682L245.856 18.5274C244.892 18.1393 244.288 17.6992 244.052 17.2071L245.244 13.9862H255.143C258.752 14.0382 261.301 14.6224 262.781 15.7347C264.265 16.847 264.637 18.8795 263.901 21.8283H263.905ZM253.819 18.2193H251.53L249.689 25.5973H251.902C253.663 25.5973 255.043 25.3333 256.039 24.8011C257.039 24.269 257.708 23.3207 258.052 21.9483C258.396 20.576 258.192 19.6117 257.452 19.0556C256.711 18.4994 255.499 18.2193 253.819 18.2193Z" fill="white"/>
<path d="M175.485 30.9428C176.777 36.7283 172.668 41.8417 167.47 43.3421C160.324 45.4026 152.17 40.0212 151.906 31.995C151.646 23.9889 157.964 19.2436 161.797 12.8939C164.834 7.86455 163.009 2.92322 162.121 1.08273C162.009 0.854667 162.249 0.622604 162.457 0.750639C171.343 6.10408 166.462 14.9545 164.414 18.3554C161.833 22.6365 159.344 25.9774 159.644 30.3586C159.824 32.9633 162.785 36.3282 166.562 34.7238C166.954 34.5597 167.322 34.3237 167.67 34.0276C167.714 33.9916 167.754 33.9516 167.794 33.9156C167.794 33.9156 167.798 33.9156 167.802 33.9116C169.523 32.6352 172.972 29.7504 173.516 26.7976C174.156 27.4498 175.044 29.0022 175.481 30.9428H175.485Z" fill="url(#paint8_linear_693_3572)"/>
<path d="M173.526 26.7977C176.203 30.7587 169.533 32.6352 167.813 33.9116C170.097 31.823 169.625 28.8782 167.401 26.4336C167.353 26.3775 167.305 26.3295 167.257 26.2775C166.264 25.2292 165.716 24.1529 165.58 22.9566C165.56 22.7886 165.548 22.6205 165.548 22.4445C165.544 22.2524 165.548 22.0564 165.568 21.8563C165.568 21.8243 165.572 21.7883 165.576 21.7563C165.712 20.3279 166.348 18.7115 167.429 16.783C167.505 16.6429 167.701 16.7109 167.705 16.859V16.891C167.689 16.979 167.677 17.071 167.665 17.1591C167.653 17.2711 167.641 17.3831 167.637 17.4952C167.629 17.6472 167.625 17.7952 167.633 17.9433C167.765 21.7483 171.938 24.9492 173.294 26.5136C173.374 26.6056 173.454 26.7056 173.53 26.8017L173.526 26.7977Z" fill="#F4A11E"/>
<path d="M170.317 20.496C169.513 19.5277 169.141 18.1913 169.329 16.943C169.517 15.6947 170.265 14.5624 171.31 13.9342C170.886 14.7024 170.958 15.6947 171.31 16.5189C171.662 17.3391 172.262 18.0233 172.886 18.6515C173.546 19.3197 174.271 19.9878 174.583 20.8881C174.887 21.7643 174.719 22.9126 174.103 23.5968C173.602 24.1529 173.662 23.9969 173.286 23.5048C172.222 22.1164 170.846 21.1321 170.321 20.5L170.317 20.496Z" fill="#F4A11E"/>
<path d="M24.3531 26.9616C25.0693 30.1665 22.7927 33.0033 19.9119 33.8315C15.9508 34.9718 11.4336 31.991 11.2856 27.5418C11.1415 23.1046 14.6425 20.4759 16.767 16.955C18.4515 14.1662 17.4392 11.4295 16.9471 10.4092C16.8831 10.2812 17.0191 10.1531 17.1351 10.2252C22.0605 13.1899 19.3557 18.0953 18.2194 19.9798C16.791 22.3524 15.4107 24.2049 15.5747 26.6336C15.6747 28.0779 17.3152 29.9424 19.4077 29.0542C19.6238 28.9622 19.8279 28.8342 20.0239 28.6701C20.0479 28.6501 20.0719 28.6261 20.0919 28.6061C20.0919 28.6061 20.0919 28.6061 20.0959 28.6061C21.0482 27.8979 22.9607 26.3015 23.2608 24.665C23.6169 25.0251 24.109 25.8854 24.3491 26.9616H24.3531Z" fill="url(#paint9_linear_693_3572)"/>
<path d="M23.5886 25.0491C25.3411 27.6418 20.9759 28.8701 19.8476 29.7063C21.344 28.338 21.0319 26.4134 19.5795 24.813C19.5475 24.777 19.5155 24.745 19.4835 24.709C18.8353 24.0248 18.4752 23.3166 18.3872 22.5364C18.3752 22.4284 18.3672 22.3163 18.3672 22.2003C18.3672 22.0763 18.3672 21.9482 18.3792 21.8162C18.3792 21.7962 18.3792 21.7722 18.3832 21.7522C18.4712 20.8159 18.8873 19.7597 19.5955 18.4993C19.6435 18.4073 19.7756 18.4513 19.7756 18.5473V18.5673C19.7636 18.6234 19.7556 18.6834 19.7476 18.7434C19.7396 18.8154 19.7316 18.8914 19.7276 18.9634C19.7236 19.0635 19.7196 19.1595 19.7276 19.2555C19.8156 21.7442 22.5443 23.8408 23.4325 24.865C23.4846 24.925 23.5366 24.9891 23.5886 25.0531V25.0491Z" fill="url(#paint10_linear_693_3572)"/>
<path d="M22.1473 20.996C21.6191 20.3639 21.3791 19.4876 21.4991 18.6714C21.6231 17.8552 22.1113 17.115 22.7954 16.7029C22.5194 17.207 22.5634 17.8552 22.7954 18.3953C23.0275 18.9315 23.4196 19.3796 23.8277 19.7917C24.2598 20.2278 24.732 20.6679 24.936 21.2561C25.1361 21.8283 25.024 22.5805 24.6199 23.0286C24.2919 23.3927 24.3319 23.2887 24.0838 22.9686C23.3876 22.0603 22.4874 21.4161 22.1433 21.004L22.1473 20.996Z" fill="url(#paint11_linear_693_3572)"/>
<path d="M20.4544 41.0894C20.4544 40.4012 20.0983 39.9171 19.7823 39.9171H14.1487C13.8287 39.9171 13.4766 40.3972 13.4766 41.0894C13.4766 41.7816 13.8327 42.2617 14.1487 42.2617H19.7823C20.1023 42.2617 20.4544 41.7816 20.4544 41.0894Z" fill="white"/>
<path d="M16.3824 41.0614C16.3824 40.6093 16.0183 40.2372 15.5662 40.2372C15.1141 40.2372 14.75 40.6053 14.75 41.0614C14.75 41.5175 15.1141 41.8856 15.5662 41.8856C16.0183 41.8856 16.3824 41.5175 16.3824 41.0614Z" fill="#F4A11E"/>
<path d="M19.1637 41.0614C19.1637 40.6093 18.7996 40.2372 18.3475 40.2372C17.8953 40.2372 17.5312 40.6053 17.5312 41.0614C17.5312 41.5175 17.8953 41.8856 18.3475 41.8856C18.7996 41.8856 19.1637 41.5175 19.1637 41.0614Z" fill="#F4A11E"/>
<defs>
<linearGradient id="paint0_linear_693_3572" x1="40.1562" y1="40.9134" x2="125.507" y2="40.9134" gradientUnits="userSpaceOnUse">
<stop stop-color="#144873"/>
<stop offset="0.97" stop-color="#144873"/>
</linearGradient>
<linearGradient id="paint1_linear_693_3572" x1="269.959" y1="40.9134" x2="122.211" y2="40.9134" gradientUnits="userSpaceOnUse">
<stop stop-color="#144873"/>
<stop offset="0.97" stop-color="#144873"/>
</linearGradient>
<linearGradient id="paint2_linear_693_3572" x1="-0.0444941" y1="49.6478" x2="38.3858" y2="51.6604" gradientUnits="userSpaceOnUse">
<stop stop-color="#144873"/>
<stop offset="0.97" stop-color="#144873"/>
</linearGradient>
<linearGradient id="paint3_linear_693_3572" x1="7.29884" y1="50.0799" x2="29.1687" y2="51.2282" gradientUnits="userSpaceOnUse">
<stop stop-color="#144873"/>
<stop offset="0.97" stop-color="#144873"/>
</linearGradient>
<linearGradient id="paint4_linear_693_3572" x1="149.146" y1="44.7384" x2="180.367" y2="46.3748" gradientUnits="userSpaceOnUse">
<stop offset="0.03" stop-color="#CD9967"/>
<stop offset="0.27" stop-color="#E4BD90"/>
<stop offset="0.51" stop-color="#FEE5BD"/>
<stop offset="1" stop-color="#F6D1A2"/>
</linearGradient>
<linearGradient id="paint5_linear_693_3572" x1="155.125" y1="45.0905" x2="172.89" y2="46.0228" gradientUnits="userSpaceOnUse">
<stop offset="0.03" stop-color="#CD9967"/>
<stop offset="0.27" stop-color="#E4BD90"/>
<stop offset="0.51" stop-color="#FEE5BD"/>
<stop offset="1" stop-color="#F6D1A2"/>
</linearGradient>
<linearGradient id="paint6_linear_693_3572" x1="3.625" y1="22.5605" x2="31.8126" y2="22.5605" gradientUnits="userSpaceOnUse">
<stop stop-color="#E9F6F9"/>
<stop offset="0.97" stop-color="#FAFCF0"/>
</linearGradient>
<linearGradient id="paint7_linear_693_3572" x1="3.625" y1="41.0895" x2="31.8126" y2="41.0895" gradientUnits="userSpaceOnUse">
<stop stop-color="#E9F6F9"/>
<stop offset="0.97" stop-color="#FAFCF0"/>
</linearGradient>
<linearGradient id="paint8_linear_693_3572" x1="151.898" y1="22.2484" x2="175.725" y2="22.2484" gradientUnits="userSpaceOnUse">
<stop stop-color="#F3A11F"/>
<stop offset="0.49" stop-color="#F3A136"/>
<stop offset="0.97" stop-color="#F3A152"/>
</linearGradient>
<linearGradient id="paint9_linear_693_3572" x1="11.2856" y1="22.1444" x2="24.4891" y2="22.1444" gradientUnits="userSpaceOnUse">
<stop stop-color="#F3A11F"/>
<stop offset="0.49" stop-color="#F3A136"/>
<stop offset="0.97" stop-color="#F3A152"/>
</linearGradient>
<linearGradient id="paint10_linear_693_3572" x1="18.3632" y1="24.0768" x2="23.9967" y2="24.0768" gradientUnits="userSpaceOnUse">
<stop stop-color="#F3A11F"/>
<stop offset="0.49" stop-color="#F3A136"/>
<stop offset="0.97" stop-color="#F3A152"/>
</linearGradient>
<linearGradient id="paint11_linear_693_3572" x1="21.4671" y1="19.9798" x2="25.032" y2="19.9798" gradientUnits="userSpaceOnUse">
<stop stop-color="#F3A11F"/>
<stop offset="0.49" stop-color="#F3A136"/>
<stop offset="0.97" stop-color="#F3A152"/>
</linearGradient>
</defs>
</svg>
